<?xml version="1.0" standalone="no"?>
<!DOCTYPE svg PUBLIC "-//W3C//DTD SVG 20010904//EN"
 "http://www.w3.org/TR/2001/REC-SVG-20010904/DTD/svg10.dtd">
<svg version="1.0" xmlns="http://www.w3.org/2000/svg"
 width="539.000000pt" height="539.000000pt" viewBox="0 0 539.000000 539.000000"
 preserveAspectRatio="xMidYMid meet">
<metadata>
Created by potrace 1.11, written by Peter Selinger 2001-2013
</metadata>
<g transform="translate(0.000000,539.000000) scale(0.100000,-0.100000)"
fill="#000000" stroke="none">
<path d="M0 2695 l0 -2695 2695 0 2695 0 0 2695 0 2695 -2695 0 -2695 0 0
-2695z m3340 1640 c0 -7 -82 -42 -475 -200 -494 -198 -552 -223 -725 -311
-180 -91 -318 -176 -435 -270 -99 -79 -212 -190 -203 -199 3 -3 48 15 100 41
76 38 99 54 114 82 60 112 452 362 779 497 237 99 566 198 760 229 98 16 232
29 224 22 -2 -2 -44 -11 -92 -20 -326 -61 -999 -326 -1380 -543 -102 -58 -197
-135 -197 -159 0 -20 6 -18 84 21 37 19 73 35 80 35 6 0 42 25 79 55 116 93
247 163 474 251 285 111 718 218 1048 259 72 9 177 28 233 41 121 28 139 29
62 4 -89 -29 -12 -25 89 5 84 25 126 28 55 5 -26 -9 -33 -15 -23 -21 10 -6 3
-9 -20 -9 -18 0 -120 -32 -225 -71 -187 -70 -249 -96 -196 -85 13 3 99 10 190
17 131 9 198 20 323 50 168 42 530 119 550 118 7 0 -112 -34 -263 -74 -216
-58 -265 -74 -230 -75 25 -1 65 -5 90 -9 33 -5 5 -9 -110 -13 -117 -4 -170
-10 -215 -25 -33 -11 -121 -39 -195 -62 -143 -45 -196 -64 -150 -56 14 3 97
16 185 30 88 14 185 30 215 35 175 31 491 61 685 65 l210 4 -160 -9 c-88 -5
-212 -18 -275 -28 -394 -64 -879 -147 -871 -150 5 -2 76 6 157 17 194 26 312
38 514 51 91 6 228 18 305 26 144 15 491 18 465 4 -8 -4 -69 -10 -134 -14
-185 -10 -376 -35 -427 -56 -60 -25 -266 -66 -446 -90 -99 -12 -152 -24 -171
-37 l-27 -18 34 -3 c18 -2 78 6 132 18 274 58 594 83 789 61 105 -12 233 -40
280 -60 28 -13 20 -12 -148 14 -141 22 -384 28 -462 12 -63 -12 -61 -13 80 -9
156 5 422 -19 495 -43 97 -33 163 -66 237 -120 44 -31 78 -59 75 -61 -2 -2
-47 16 -100 41 -201 94 -321 123 -537 132 -140 5 -445 -7 -360 -14 444 -40
878 -165 971 -279 17 -22 6 -16 -56 28 -22 15 -56 32 -75 37 l-35 10 25 -17
c84 -58 116 -102 125 -173 l5 -44 -18 50 c-14 37 -32 60 -75 95 -68 54 -207
126 -262 134 l-40 6 50 -23 c105 -48 142 -72 206 -136 56 -56 109 -132 109
-157 0 -3 -35 29 -77 73 -75 76 -83 81 -218 138 -95 40 -166 63 -220 71 -59
10 -103 25 -168 58 -61 32 -107 49 -155 55 -101 15 -143 18 -134 10 4 -4 99
-58 212 -120 113 -61 221 -122 240 -134 30 -18 41 -20 74 -12 116 28 361 -89
461 -221 53 -69 42 -81 -21 -23 -95 87 -217 159 -299 176 l-30 7 35 -22 c52
-33 109 -90 131 -132 21 -42 25 -112 8 -155 -11 -27 -12 -27 -23 28 -7 32 -24
75 -39 97 -27 42 -93 99 -103 89 -3 -3 13 -29 37 -59 80 -101 85 -141 34 -243
-20 -39 -33 -59 -30 -45 3 14 11 48 17 75 15 68 6 98 -50 157 l-47 50 -7 -43
c-7 -37 -4 -49 18 -82 40 -60 45 -83 31 -125 -14 -41 -87 -156 -94 -149 -2 3
10 34 27 71 32 70 37 105 20 137 -16 29 -30 23 -30 -15 0 -19 -9 -62 -20 -97
-20 -64 -69 -190 -70 -178 0 4 16 72 35 152 30 125 35 161 34 259 -1 62 -4
123 -7 134 -7 20 -102 108 -109 100 -2 -2 8 -48 23 -102 38 -143 43 -271 14
-365 -19 -64 -94 -229 -104 -229 -2 0 13 42 32 93 44 116 55 252 28 357 -19
74 -104 308 -119 328 -13 17 -67 45 -74 39 -2 -3 10 -33 28 -68 68 -135 109
-280 109 -382 0 -62 -24 -168 -46 -205 -8 -15 -13 -20 -10 -11 19 67 28 152
24 242 -6 112 -25 172 -93 288 -20 35 -46 86 -57 114 -28 72 -33 77 -162 155
-46 28 -49 33 54 -105 89 -119 149 -228 175 -320 23 -79 16 -242 -15 -338 -12
-38 -23 -67 -25 -65 -2 1 4 37 12 78 8 41 15 111 16 155 2 74 -1 87 -41 175
-96 215 -230 408 -313 450 -21 11 -41 20 -45 20 -3 0 27 -37 68 -82 169 -188
214 -259 251 -388 25 -88 29 -134 18 -191 -10 -58 -50 -173 -57 -166 -2 2 3
24 12 48 20 56 13 210 -15 298 -19 61 -98 207 -108 198 -2 -3 11 -41 31 -86
59 -134 76 -226 59 -312 -6 -31 -8 -28 -18 36 -30 174 -100 283 -336 516
l-177 176 -62 12 c-34 7 -63 11 -65 9 -2 -2 34 -34 80 -71 113 -91 248 -242
343 -383 49 -73 106 -183 99 -191 -3 -2 -10 5 -17 16 -6 12 -57 77 -113 144
-169 204 -473 495 -494 474 -3 -4 112 -125 255 -269 319 -320 385 -400 147
-177 -139 131 -311 283 -447 399 -91 76 -98 80 -129 73 l-32 -9 149 -119 c144
-115 314 -270 314 -287 0 -4 -60 38 -132 93 -73 56 -192 147 -265 201 l-132
99 -43 -8 -43 -9 80 -59 c44 -33 147 -105 229 -160 192 -129 291 -208 338
-270 58 -77 45 -83 -29 -15 -75 69 -165 134 -444 322 -103 69 -200 135 -215
146 -26 19 -35 20 -76 11 -27 -6 -48 -14 -48 -17 0 -4 126 -74 280 -156 154
-82 279 -151 277 -152 -2 -2 -63 21 -136 52 -73 30 -135 53 -137 52 -2 -2 57
-39 131 -82 74 -43 152 -94 172 -113 36 -32 37 -33 8 -19 -16 8 -104 58 -195
112 -214 126 -348 202 -437 248 -72 37 -73 38 -130 25 -69 -14 -84 -24 -52
-34 77 -24 483 -204 476 -211 -2 -2 -55 16 -118 40 -114 43 -266 94 -411 136
l-77 23 -78 -20 c-60 -16 -72 -21 -53 -26 186 -41 412 -101 478 -127 83 -32
106 -48 41 -30 -147 43 -580 111 -707 111 -34 0 -87 -10 -132 -24 l-75 -25
130 -1 c72 -1 185 -8 250 -16 128 -17 300 -54 291 -62 -3 -3 -38 3 -78 13 -53
14 -110 19 -205 19 -74 0 -129 4 -126 9 4 5 -85 6 -213 2 -204 -6 -227 -9
-332 -38 -61 -17 -110 -33 -108 -35 2 -2 64 5 137 16 140 21 371 42 449 40 31
-1 14 -6 -55 -15 -148 -20 -151 -22 -30 -18 l110 4 -85 -15 c-227 -40 -621
-121 -820 -169 -30 -8 -68 -17 -84 -21 -27 -6 -28 -7 -13 -22 15 -15 29 -14
179 12 225 38 552 103 616 121 30 9 56 14 58 11 8 -7 -121 -53 -211 -76 -92
-23 -479 -106 -542 -116 -24 -4 -46 -11 -49 -17 -4 -6 4 -8 22 -4 73 15 626
105 679 110 77 7 58 1 -190 -64 -104 -27 -230 -61 -280 -76 -49 -15 -107 -32
-127 -37 -21 -6 -38 -14 -38 -17 0 -3 38 -63 84 -132 149 -226 234 -413 286
-631 33 -138 41 -199 29 -218 -20 -33 -76 56 -232 367 -91 180 -252 439 -329
527 l-33 38 -125 -30 c-144 -34 -254 -57 -325 -66 -27 -4 -63 -9 -80 -11 -22
-3 -57 -32 -136 -113 -199 -204 -310 -381 -365 -581 -28 -101 -55 -143 -89
-138 -43 6 -31 79 40 258 77 191 179 339 381 552 l54 56 0 74 c0 132 51 267
152 398 l49 65 -43 38 c-24 20 -109 92 -190 160 -81 67 -153 135 -161 150 -33
65 19 147 92 147 58 0 155 -69 379 -271 l74 -66 103 82 c122 98 214 161 390
267 144 87 484 263 492 255 3 -3 -10 -13 -29 -23 -249 -127 -616 -367 -758
-496 -140 -127 -146 -134 -130 -153 11 -13 22 -6 82 50 263 249 582 455 848
549 135 48 296 87 329 80 21 -5 23 -3 11 6 -12 9 -9 10 13 5 21 -4 27 -3 21 6
-4 7 -3 9 4 5 6 -3 50 5 99 18 109 29 374 88 379 83 2 -2 -49 -18 -114 -36
-64 -19 -169 -49 -233 -67 -66 -20 -124 -31 -134 -27 -12 4 -16 3 -12 -4 5 -7
-1 -9 -15 -6 -19 4 -20 3 -8 -7 12 -9 12 -10 -5 -6 -32 9 -248 -74 -350 -134
-191 -112 -495 -329 -663 -473 -106 -91 -117 -118 -15 -35 104 84 255 195 394
291 124 85 279 181 279 172 0 -2 -31 -24 -69 -49 -175 -113 -677 -533 -659
-551 11 -11 50 15 152 104 314 272 499 402 756 531 145 73 223 104 430 170 91
29 228 77 305 108 106 42 395 148 413 151 1 1 2 -1 2 -4z m-413 -121 c-3 -3
-12 -4 -19 -1 -8 3 -5 6 6 6 11 1 17 -2 13 -5z m641 -1586 c18 -18 15 -40 -12
-91 -42 -78 -58 -99 -69 -88 -6 6 -6 31 3 73 20 102 46 138 78 106z m400 -274
c7 -2 12 -14 10 -26 -3 -22 -10 -24 -103 -31 -104 -8 -139 -20 -83 -30 57 -9
88 -25 88 -46 0 -26 -19 -39 -76 -51 -64 -14 -158 -61 -162 -82 -7 -37 182
-36 340 2 95 23 98 23 98 11 0 -12 -126 -67 -200 -87 -87 -23 -204 -23 -251 0
-46 22 -65 59 -48 97 11 27 90 89 113 89 6 0 18 4 26 10 12 7 9 13 -13 30 -65
51 -7 103 133 119 60 7 94 6 128 -5z m-444 -11 c7 -24 -86 -335 -102 -341 -33
-11 6 259 48 339 13 24 47 25 54 2z m1086 11 c0 -17 -76 -111 -160 -198 -146
-151 -203 -182 -246 -135 -16 18 -19 39 -21 138 -3 136 5 176 33 176 18 0 19
-10 24 -129 3 -76 9 -131 15 -133 6 -2 60 42 120 98 153 142 235 206 235 183z
m-1363 -31 c42 -19 67 -70 58 -114 -4 -16 -27 -51 -51 -78 -76 -84 -219 -140
-326 -128 -47 6 -47 6 -54 -27 -3 -19 1 -60 10 -96 31 -121 13 -161 -29 -67
-78 169 -35 331 117 446 100 75 202 99 275 64z m-806 -22 c36 -29 11 -51 -57
-51 -30 0 -77 -9 -105 -19 -61 -24 -148 -89 -172 -130 -17 -28 -17 -32 -2 -37
56 -22 177 21 340 120 37 22 73 36 93 36 30 0 35 -4 53 -47 43 -104 78 -155
124 -180 36 -21 6 -26 -36 -8 -45 21 -101 86 -121 141 -7 19 -16 34 -20 34 -5
0 -54 -27 -109 -61 -173 -104 -299 -138 -362 -96 -23 15 -27 24 -27 66 0 81
67 154 193 211 98 44 171 52 208 21z"/>
<path d="M3664 4115 c-153 -39 -660 -210 -819 -275 -82 -34 -179 -73 -215 -86
-83 -32 -93 -42 -33 -34 27 4 84 24 127 44 44 21 206 79 360 131 155 52 313
105 351 119 39 14 144 47 235 75 124 38 155 50 125 50 -22 0 -81 -11 -131 -24z"/>
<path d="M3388 4080 c-349 -73 -669 -185 -999 -351 -88 -43 -159 -81 -159 -83
0 -9 171 54 350 129 330 138 588 227 895 309 122 33 80 31 -87 -4z"/>
<path d="M2305 4070 c-13 -5 -14 -9 -5 -9 8 0 24 4 35 9 13 5 14 9 5 9 -8 0
-24 -4 -35 -9z"/>
<path d="M3738 3983 c7 -3 16 -2 19 1 4 3 -2 6 -13 5 -11 0 -14 -3 -6 -6z"/>
<path d="M3525 3950 c-228 -48 -600 -150 -690 -190 l-20 -9 20 0 c28 -1 205
42 450 109 116 32 260 70 320 85 61 15 112 29 114 31 12 11 -69 0 -194 -26z"/>
<path d="M1980 3945 c-14 -8 -20 -14 -14 -15 5 0 19 7 30 15 24 18 16 19 -16
0z"/>
<path d="M1835 3874 c-103 -57 -298 -185 -395 -260 -30 -23 -91 -76 -135 -119
l-80 -77 70 57 c243 197 460 347 613 424 39 20 52 31 35 31 -5 0 -53 -25 -108
-56z"/>
<path d="M3473 3803 c9 -2 23 -2 30 0 6 3 -1 5 -18 5 -16 0 -22 -2 -12 -5z"/>
<path d="M3408 3793 c6 -2 18 -2 25 0 6 3 1 5 -13 5 -14 0 -19 -2 -12 -5z"/>
<path d="M3353 3783 c9 -2 23 -2 30 0 6 3 -1 5 -18 5 -16 0 -22 -2 -12 -5z"/>
<path d="M3293 3773 c9 -2 23 -2 30 0 6 3 -1 5 -18 5 -16 0 -22 -2 -12 -5z"/>
<path d="M3233 3763 c9 -2 23 -2 30 0 6 3 -1 5 -18 5 -16 0 -22 -2 -12 -5z"/>
<path d="M2585 3646 c-78 -16 -92 -22 -65 -24 47 -5 205 29 188 39 -7 5 -15 8
-18 8 -3 -1 -50 -11 -105 -23z"/>
<path d="M2213 3562 c-107 -28 -135 -42 -87 -42 39 0 254 52 254 62 0 14 -63
7 -167 -20z"/>
<path d="M895 3177 c-31 -46 -74 -130 -96 -186 -40 -105 -46 -131 -29 -131 6
0 10 5 10 12 0 13 70 136 145 253 28 44 54 85 58 91 3 6 -2 19 -13 29 -18 16
-21 14 -75 -68z"/>
<path d="M1019 3163 c-32 -38 -90 -135 -85 -141 11 -11 58 23 99 71 31 38 38
53 31 65 -15 23 -29 25 -45 5z"/>
<path d="M1081 3008 c-38 -8 -157 -76 -148 -84 1 -2 52 10 112 26 61 15 123
31 138 35 24 5 27 8 17 20 -14 17 -54 18 -119 3z"/>
<path d="M1105 2914 c-107 -36 -103 -37 47 -2 54 13 98 26 98 31 0 14 -45 5
-145 -29z"/>
<path d="M3090 2248 c-49 -24 -180 -146 -180 -167 0 -11 15 -13 68 -9 101 8
228 76 264 141 7 14 5 24 -8 38 -23 26 -87 25 -144 -3z"/>
</g>
</svg>
